<svg width="1200" height="630" viewBox="0 0 1200 630" fill="none" xmlns="http://www.w3.org/2000/svg">
  <!-- Background -->
  <rect width="1200" height="630" fill="#3b82f6"/>

  <!-- Restaurant mark -->
  <g transform="translate(540, 180) scale(5)"
     stroke="#dbeafe" stroke-width="1.6" stroke-linecap="round" stroke-linejoin="round" fill="none" opacity="0.9">
    <path d="M7 2v20"/>
    <path d="M3 2v7a4 4 0 0 0 8 0V2"/>
    <path d="M17 2v20"/>
    <path d="M17 2c2.76 0 5 2.24 5 5v4h-5"/>
  </g>

  <!-- Wordmark -->
  <text x="600" y="410" font-size="96" text-anchor="middle" letter-spacing="-4"
        fill="#eff6ff"
        font-family="system-ui, -apple-system, 'Segoe UI', Helvetica, Arial, sans-serif"
        font-weight="800">Hi Sora</text>

  <!-- Divider -->
  <line x1="380" y1="436" x2="820" y2="436" stroke="#93c5fd" stroke-width="1" stroke-opacity="0.35"/>

  <!-- Domain pill -->
  <rect x="450" y="464" width="300" height="38" rx="19"
        fill="#60a5fa" fill-opacity="0.25" stroke="#93c5fd" stroke-opacity="0.4" stroke-width="1"/>
  <text x="600" y="488" font-size="13" text-anchor="middle" letter-spacing="1.5"
        fill="#dbeafe"
        font-family="system-ui, -apple-system, 'Segoe UI', Helvetica, Arial, sans-serif">hisora.cc</text>

  <!-- Corner marks -->
  <path d="M 36 60 L 36 36 L 60 36"     stroke="#93c5fd" stroke-width="1.5" fill="none" stroke-opacity="0.45"/>
  <path d="M 1140 36 L 1164 36 L 1164 60"   stroke="#93c5fd" stroke-width="1.5" fill="none" stroke-opacity="0.45"/>
  <path d="M 36 570 L 36 594 L 60 594"   stroke="#93c5fd" stroke-width="1.5" fill="none" stroke-opacity="0.45"/>
  <path d="M 1140 594 L 1164 594 L 1164 570" stroke="#93c5fd" stroke-width="1.5" fill="none" stroke-opacity="0.45"/>
</svg>
